<?xml version="1.0" encoding="UTF-8"?><svg id="Persons_x5F_indigo" xmlns="http://www.w3.org/2000/svg" viewBox="0 0 300 300"><defs><style>.cls-1{fill:none;stroke:#25255b;stroke-miterlimit:10;stroke-width:4px;}.cls-2{fill:#fdb62c;}.cls-3{fill:#25255b;}</style></defs><path class="cls-1" d="M92.2,28.05c-37.8,0-45,31.5-44,43.6.8,9.8,2.8,22.5,2.8,22.5,0,0-4,2.1-4,10.7,1.4,21.5,8.8,12.3,10.3,21.7,3.7,22.7,12,18.7,12,31.1,0,20.7-8.7,30.3-36,41.8-8.3,3.5-23.3,8.9-23.3,21.9v50.5"/><path class="cls-1" d="M42.2,271.85h159.4v-37.8c0-11.9-23.2-23.1-50.6-34.6-27.3-11.5-36-21.1-36-41.8,0-12.4,8.3-8.4,12-31.1,1.5-9.4,8.9-.2,10.3-21.7,0-8.6-4-10.7-4-10.7,0,0,2-12.7,2.8-22.5.5-6.4-1.2-18.2-8.4-27.8-.7-.9-1.4-1.8-2.1-2.6"/><path class="cls-3" d="M267.3,199.45c10.1,4.3,15.8,9.1,19,14.6,3.2,5.4,3.7,57.9,3.7,57.9h-66.2v-41.2c0-20.1-6-24.7-50.7-47.2,8.4-5.9,11.4-12.6,11.4-23.2s-6.3-6.3-9-23.3c-1.2-7.1-6.6-.2-7.7-16.3,0-6.4,3-8.1,3-8.1,0,0-1.5-9.5-2.1-16.8-.7-9.2,4.6-32.8,33-32.8s33.7,23.6,33,32.8c-.6,7.3-2.1,16.8-2.1,16.8,0,0,3,1.6,3,8.1-1,16.1-6.6,9.2-7.7,16.3-2.8,17-9,14-9,23.3,0,15.4,6.5,22.7,27,31.3,0,0,16.2,5.5,21.5,7.7h0l-.1.1Z"/><rect class="cls-2" x="36.4" y="226.65" width="105.4" height="25.5" rx="1" ry="1"/></svg>