<?xml version="1.0" encoding="UTF-8"?>
<svg id="Ladybug" xmlns="http://www.w3.org/2000/svg" version="1.1" viewBox="0 0 300 300">
  <!-- Generator: Adobe Illustrator 29.0.0, SVG Export Plug-In . SVG Version: 2.1.0 Build 186)  -->
  <defs>
    <style>
      .st0 {
        fill: #292357;
      }

      .st1 {
        fill: none;
        stroke: #292357;
        stroke-miterlimit: 10;
        stroke-width: 4px;
      }

      .st2 {
        fill: #fbb809;
      }
    </style>
  </defs>
  <path class="st0" d="M97.1,15c3-3.1,7.2-5,11.8-5,11.1,0,19.1,10.4,16.2,20.8-1.1,3.9-.4,8.3,1.4,11.5,4.7,7.9,12.6,12.6,23,12.6s18.3-4.7,23-12.6c2.2-3.6,2.5-7.9,1.4-11.5-2.9-10.4,5-20.8,16.2-20.8s16.5,7.6,16.5,16.5-5.8,14.4-12.9,16.2c-3.6.7-6.8,3.2-9,6.5-7.6,12.6,3.6,23.7,12.2,34.9-27.3,14-68.3,14-95.6,0,9-11.5,20.1-22.3,12.2-34.9-1.8-3.2-5.4-5.8-9-6.5-6.5-1.8-12.2-8.3-12.2-16.2h0"/>
  <path class="st1" d="M158.8,209.4v16.3"/>
  <path class="st1" d="M158.8,225.7v64.3c29.5-6.1,50.7-24.8,62.2-43.5,2.9-5,7.2-6.1,11.1-4.3l29.8,13.3c6.1,2.9,13.7,0,16.2-6.1,2.9-6.1,0-13.3-6.1-16.2l-28.4-12.6c-5.8-2.5-10.1-8.6-9-16.2,1.8-9.3,8.6-13.3,15.1-13.3h28c6.8,0,12.2-5.4,12.2-12.2s-5.4-12.2-12.2-12.2h-28c-6.8,0-13.3-4.7-14.4-12.2-1.1-7.9,3.2-13.3,9-15.8l26.2-10.1c6.5-2.5,9.3-9.7,6.8-15.8s-9.7-9.3-15.8-6.8l-27,10.4c-3.9,1.4-8.6.4-10.8-4.7-2.5-6.1-5.8-11.5-9-16.9-20.5,9-38.5,14.4-56.1,15.8v63"/>
  <path class="st1" d="M38.4,105.6c-6.5-2.5-13.3.7-15.8,6.8-2.5,6.1.7,13.3,6.8,15.8l26.2,10.1c5.8,2.2,10.1,8.3,9,15.1-1.1,9-7.9,12.9-14.4,12.9h-28c-6.8,0-12.2,5.4-12.2,12.2s5.4,12.2,12.2,12.2h28c6.8,0,13.7,4.3,14.7,12.6,1.4,8.6-2.5,14.4-8.6,17.3l-28.4,12.6c-6.1,2.9-9,10.1-6.1,16.2,2.9,6.1,10.1,9,16.2,6.1l29.8-13.3c3.6-1.4,7.9-1.1,10.4,2.9,11.1,19.4,32.7,38.8,62.9,44.9V110.6c-17.6-1.4-35.6-6.5-56.1-15.8-3.2,5-6.1,10.4-8.6,16.2-2.5,6.1-7.6,6.5-11.1,5"/>
  <path id="light-bulb-11-icon" class="st2" d="M206.4,217l13.1,1.7c-4.3,27-23,42.5-45.4,47.9l-3.5-12.7c14.8-4.1,30.5-12.7,35.8-36.9h0Z"/>
  <path id="light-bulb-11-icon-2" class="st2" d="M92.5,217l-13.1,1.7c4.3,27,23,42.5,45.4,47.9l3.5-12.7c-14.8-4.1-30.5-12.7-35.8-36.9h0Z"/>
</svg>