<?xml version="1.0" encoding="UTF-8"?>
<svg id="Download" xmlns="http://www.w3.org/2000/svg" version="1.1" viewBox="0 0 300 300">
  <!-- Generator: Adobe Illustrator 29.0.0, SVG Export Plug-In . SVG Version: 2.1.0 Build 186)  -->
  <defs>
    <style>
      .st0 {
        fill: #292357;
      }

      .st1 {
        fill: none;
        stroke: #292357;
        stroke-miterlimit: 10;
        stroke-width: 4px;
      }

      .st2 {
        fill: #fbb809;
      }
    </style>
  </defs>
  <path class="st1" d="M150.9,286.1H23.1c-7.3,0-13.1-5.9-13.1-13.1v-27.1"/>
  <g>
    <path class="st0" d="M129.7,13.9h40.5c6.7,0,12.2,5.4,12.2,12.2v85.1h44.4c9,0,13.5,10.9,7.1,17.3l-77.1,77.1c-3.8,3.8-10,3.8-13.8,0l-77.2-77.1c-6.4-6.4-1.9-17.3,7.1-17.3h44.5V26c0-6.7,5.4-12.2,12.2-12.2h0Z"/>
    <path class="st1" d="M10.3,209c1.3-5.9,6.5-10.3,12.8-10.3h80.2l26.8,26.8c11,11,28.7,11,39.7,0l26.8-26.8h80.2c7.3,0,13.1,5.9,13.1,13.1v61.2c0,7.3-5.9,13.1-13.1,13.1h-89"/>
    <path class="st2" d="M222.2,259.9c0-6-4.9-10.9-10.9-10.9s-10.9,4.9-10.9,10.9,4.9,10.9,10.9,10.9,10.9-4.9,10.9-10.9Z"/>
    <path class="st2" d="M257.2,259.9c0-6-4.9-10.9-10.9-10.9s-10.9,4.9-10.9,10.9,4.9,10.9,10.9,10.9,10.9-4.9,10.9-10.9Z"/>
  </g>
</svg>