<?xml version="1.0" encoding="UTF-8"?>
<svg id="Rectangles" xmlns="http://www.w3.org/2000/svg" version="1.1" viewBox="0 0 300 300">
  <!-- Generator: Adobe Illustrator 29.0.0, SVG Export Plug-In . SVG Version: 2.1.0 Build 186)  -->
  <defs>
    <style>
      .st0 {
        stroke-width: .2px;
      }

      .st0, .st1, .st2 {
        stroke: #292357;
        stroke-miterlimit: 10;
      }

      .st0, .st2 {
        fill: #292357;
      }

      .st1 {
        fill: none;
      }

      .st1, .st2 {
        stroke-width: 4px;
      }

      .st3 {
        fill: #fbb809;
      }
    </style>
  </defs>
  <polyline class="st1" points="37.8 10 54.2 10 54.2 82.1 28.1 82.1 28.1 32.7"/>
  <polyline class="st1" points="54.2 249.8 54.2 290 28.1 290 28.1 230.4 46.7 230.4"/>
  <polyline class="st1" points="10.7 134 10.7 130.8 10.7 116.9 71.6 116.9 71.6 195.6 10.7 195.6 10.7 170.9"/>
  <polyline class="st1" points="271.9 61.1 271.9 82.8 245.8 82.8 245.8 10 271.9 10 271.9 27.2"/>
  <rect id="rect6774" class="st3" x="228.4" y="115.9" width="60.9" height="78.7"/>
  <rect class="st2" x="136.9" y="10" width="26.1" height="94.9"/>
  <rect id="rect6776" class="st0" x="119.5" y="138.2" width="60.9" height="78.7"/>
  <polyline class="st1" points="245.8 244.3 245.8 227.9 271.9 227.9 271.9 290 245.8 290 245.8 280.8"/>
  <rect class="st2" x="136.9" y="250.2" width="26.1" height="39.8"/>
</svg>