<?xml version="1.0" encoding="UTF-8"?>
<svg id="Cube" xmlns="http://www.w3.org/2000/svg" version="1.1" viewBox="0 0 300 300">
  <!-- Generator: Adobe Illustrator 29.0.0, SVG Export Plug-In . SVG Version: 2.1.0 Build 186)  -->
  <defs>
    <style>
      .st0 {
        fill: #292357;
      }

      .st1 {
        fill: none;
        stroke: #292357;
        stroke-miterlimit: 10;
        stroke-width: 4px;
      }

      .st2 {
        fill: #fbb809;
      }
    </style>
  </defs>
  <polygon class="st0" points="16.7 84.4 140.7 150.9 140.7 290 16.7 224.2 16.7 84.4"/>
  <polyline class="st1" points="231.1 251.9 159.3 290 159.3 150.9 283.3 84.4 283.3 224.3 264.5 234.2"/>
  <polyline class="st1" points="41.9 66.9 150 10 259 67.2"/>
  <g>
    <path class="st1" d="M72.5,77.8v14.8c9.5,12.3,42.2,12.3,51,0v-14.8"/>
    <path class="st1" d="M80.8,70.3c4.5-1.7,10.6-2.7,17.2-2.7,14.1,0,25.5,4.6,25.5,10.2s-11.4,10.2-25.5,10.2-25.5-4.6-25.5-10.2"/>
  </g>
  <g>
    <path class="st2" d="M179.1,80.6v13.7c9.5,11.4,42.2,11.4,51,0v-13.7h-51Z"/>
    <g>
      <ellipse class="st2" cx="204.5" cy="80" rx="25.5" ry="10.2"/>
      <path class="st2" d="M187.3,72.4c4.5-1.7,10.6-2.7,17.2-2.7,14.1,0,25.5,4.6,25.5,10.2s-11.4,10.2-25.5,10.2-25.5-4.6-25.5-10.2"/>
    </g>
  </g>
  <g>
    <path class="st2" d="M127.6,107.9v13.7c9.5,11.4,42.2,11.4,51,0v-13.7h-51Z"/>
    <g>
      <ellipse class="st2" cx="153.1" cy="107.2" rx="25.5" ry="10.2"/>
      <path class="st2" d="M135.9,99.7c4.5-1.7,10.6-2.7,17.2-2.7,14.1,0,25.5,4.6,25.5,10.2s-11.4,10.2-25.5,10.2-25.5-4.6-25.5-10.2"/>
    </g>
  </g>
  <g>
    <path class="st1" d="M125.8,50v14.8c9.5,12.3,42.2,12.3,51,0v-14.8"/>
    <path class="st1" d="M134,42.5c4.5-1.7,10.6-2.7,17.2-2.7,14.1,0,25.5,4.6,25.5,10.2s-11.4,10.2-25.5,10.2-25.5-4.6-25.5-10.2"/>
  </g>
</svg>