<?xml version="1.0" encoding="UTF-8"?>
<svg id="Hat" xmlns="http://www.w3.org/2000/svg" version="1.1" viewBox="0 0 300 300">
  <!-- Generator: Adobe Illustrator 29.0.0, SVG Export Plug-In . SVG Version: 2.1.0 Build 186)  -->
  <defs>
    <style>
      .st0 {
        fill: #fabe51;
      }

      .st1 {
        fill: #261e58;
      }

      .st2 {
        fill: none;
        stroke: #261e58;
        stroke-miterlimit: 10;
        stroke-width: 4px;
      }
    </style>
  </defs>
  <path class="st2" d="M121.1,149.6c-8-2.7-13.8-4.6-15.4-4.8h0c-4.4-.7-8.8,0-12.7,2.1l-41.1,21.5c-2.2,1.1-2.8,3.9-1.4,5.9l32.7,46.2c1,1.4,2.7,2.1,4.4,1.7l18.3-16.2c1-.9,2.3-1.2,3.6-.9l91.1,21.9c2.6.6,5.3-.2,7.1-2.2l24.1-25"/>
  <path class="st2" d="M252.1,178.7l37.4-38.8.5-1.3-3.9-9.9c-1-2.2-3.4-3.4-5.8-2.9l-15.2,3.4c-8.5,1.9-16.5,5.8-23.2,11.2l-22.4,18c-14,11.3-32.8,14.4-49.7,8.3-5.8-2.1-12-4.3-18.2-6.5"/>
  <path class="st0" d="M59.1,216.7l11.9,16.8c.8,1.1.6,2.6-.4,3.5l-16.1,14.3c-2,.5-4-.3-5.1-1.9l-38.8-54.8c-1.2-1.7-.6-4.1,1.2-5.1l18.1-9.5c1.3-.7,2.9-.3,3.7.9l8.4,11.9"/>
  <path id="path3084" class="st1" d="M151.6,86.6l28-10,9.9-28.1,10,28,28.1,9.9-28,10-9.9,28.1-10-28-28.1-9.9Z"/>
</svg>