<?xml version="1.0" encoding="UTF-8"?>
<svg id="Boat_x5F_green" xmlns="http://www.w3.org/2000/svg" version="1.1" viewBox="0 0 300 300">
  <!-- Generator: Adobe Illustrator 29.0.0, SVG Export Plug-In . SVG Version: 2.1.0 Build 186)  -->
  <defs>
    <style>
      .st0, .st1 {
        fill: none;
        stroke: #292357;
        stroke-miterlimit: 10;
      }

      .st2 {
        fill: #292357;
      }

      .st1 {
        stroke-width: 4px;
      }

      .st3 {
        fill: #fbb809;
      }
    </style>
  </defs>
  <path class="st2" d="M233.9,165.4c-3.7-15.2-7.5-30.4-11.3-45.6-1.3-5.2-4.4-9-9.9-10-2.6-.5-5.4-.3-8.1-.2-3.3.1-4.9-1.2-4.9-4.7,0-3.4,1.2-5,4.7-4.8,3.1.1,6.2-.2,9.2,0,4.9.4,6.7-1.5,6.7-6.5-.1-14-6.7-21.4-22.2-24.2,13.1-12,14.8-23.5,6-33.5-6.3-7.1-21.6-7.1-28.2-.3-9.7,9.9-7.8,20.9,6.1,34,.1,0,0-.2.2-.2.8,0,.8,1.3,0,1.3s-.6-.3-.6-.7c-6.9,0-13.6-.2-20.3,0-4.6.2-6-1.7-5.9-6.1.2-11.5,0-23.1,0-34.6,0-8.2,0-8.2,9-10,4.1-.8,8.2-1.5,12.2-2.5.8-.2,2-1.3,2.1-2.1,0-.9-.6-2.3-1.4-2.8-1.6-.9-3.4-2-5.1-2-15.8-.1-31.5-.1-47.3,0-1.3,0-3.5,1-3.6,1.8-.2,1.7,0,4.1,1.2,5.1,1.5,1.4,4,2,6.1,2.4,5.2.8,12.6-.6,15,2.3,2.7,3.2.9,10.3,1.1,15.6,0,2.7.1,5.4,0,8.1-.4,7.9-.9,15.9-1.3,23.8-8,.3-16,.5-24,.7-.1,0-.3-.1-.4-.2,0,.3-.2.6-.6.6s-.3-.2-.4-.4c-.1.2-.1.4-.4.4-.8,0-.8-1.3,0-1.3s.3.2.4.4c0-.1,0-.3.2-.3,0,0-.1-.1-.2-.2,13.9-11.1,16-22.7,6.3-33.1-6.4-7-21.9-7.1-28.2-.1-9.1,10-7.4,21.9,6.2,33.9-11.4.6-19,5.7-21.8,16.8-2.9,11.4-1.3,13.5,10.1,13.7,1.9,0,4.1-.5,5.7.2,1.6.8,3.6,2.7,3.7,4.3,0,1.6-1.6,3.7-3.1,4.8-1,.7-3,.2-4.5.3-10.3.6-12.6,2.4-15.1,12.1-3.6,14.1-7.2,28.2-10.7,42.3-.5,2.1-.3,4.4-.3,6.7,2.4-.4,5-.3,7.2-1.1,21.7-8.5,43.5-17,65-26,7.9-3.3,14.7-3.6,22.8-.2,22.2,9.4,44.7,18.1,67.2,26.8,5.7,2.2,6.9,1.2,5.5-4.8h0ZM135.1,109.5c-3.8,0-7.6,0-11.4,0h0c-3.1,0-6.1,0-9.1,0-3.3,0-4.8-1.3-4.8-4.7,0-3.4,1.3-4.8,4.6-4.8,6.8,0,13.7,0,20.5,0,3.3,0,4.8,1.2,4.8,4.6s-1.3,4.9-4.6,4.8h0ZM186.8,109.2c-3.7.6-7.6.2-11.4.2h0c0,0,0,0,0,0-3.4,0-6.8,0-10.3,0-3.2,0-4.9-1.1-4.9-4.6,0-3.3,1.1-4.9,4.6-4.9,7.2,0,14.5-.2,21.6.3,1.3,0,3.4,2.8,3.4,4.3,0,1.6-1.8,4.3-3.2,4.6h0Z"/>
  <path class="st1" d="M76.3,255.5c2.1,4.8,4.4,5.3,11,3.3,7.6-2.2,13.4-6.7,18.1-13.3,6.1-8.6,11.3-8.4,18.5-.8,4,4.1,8.5,7.6,12.9,11.3.5.2,1.1.2,1.7.3,1.9-.5,3.8-.9,5.7-1.4v-99.4c-.7-.7-1.5-1.3-2.2-2-27.7,10.9-55.4,21.8-83,32.8-8.5,3.4-8.4,3.6-3.9,12,1.8,3.4,3.9,6.6,5.1,10.2,1.3,3.7,2.6,7.4,3.9,11.1"/>
  <path class="st1" d="M231.9,228.7c-2.6,7.7-4.8,15.5-7,23.4-2.2,8-4.5,9.1-12.5,6.6-7.1-2.2-12.9-6.3-17.4-12.5-7.1-9.8-11.9-9.6-19.7-.8-3.7,4.2-8.5,7.4-12.8,11.1-2.2-.5-4.5-1.1-6.7-1.6,0-33.1,0-66.2,0-99.3.8-.7,1.5-1.4,2.3-2h0c28.4,11.3,56.7,22.8,85.3,33.8,5.1,1.9,5.8,3.6,3.2,8.1"/>
  <path class="st3" d="M289.8,280.2c0,9.7-1.4,11.2-10.5,8.9-6.6-1.7-13-4.5-19.2-7.4-3.6-1.7-6.1-2.5-10.2-.2-19.8,11.2-40,11.5-60,0-3.2-1.8-5.5-2.2-9.2,0-20.2,11.6-40.9,11.5-61.1.1-3.7-2.1-6-1.9-9.2-.1-20,11.6-40.1,11.4-60,.2-4.1-2.3-6.5-1.5-10.3,0-7.7,3.1-15.7,5.7-23.8,7.9-4.2,1.2-6.4-1.1-6-5.7.2-3.1.2-6.2,0-9.2-.2-3.8,1.4-5.3,5.3-5.7,10.9-1,19.7-6.2,26.2-14.8,2.3-3.1,3.4-4.5,6.7-.8,18,21.1,42.4,22,61.8,2.1,4.3-4.5,5.5-4.2,9.7.6,15.3,17.5,43.1,17.7,57.5,2.2,1.6-1.7,3.3-3.3,4.7-5.1,1.8-2.3,3.3-2.9,5.3-.3,1.4,1.8,3.2,3.3,4.7,5.1,12.7,15,44.8,16.4,58.8-3.6,3.5-5.1,5.1-3.5,8.1.5,5.4,7.3,13.3,11.5,22,13.7,8.8,2.3,8.9,2.1,8.8,11.6h0Z"/>
  <path class="st0" d="M123.7,109.5c-3,0-6.1,0-9.1,0-3.3,0-4.8-1.2-4.8-4.7,0-3.4,1.3-4.8,4.6-4.8,6.8,0,13.7,0,20.5,0,3.3,0,4.8,1.2,4.8,4.6s-1.3,4.9-4.6,4.8c-3.8,0-7.6,0-11.4,0h0Z"/>
  <path class="st0" d="M175.4,109.5c-3.4,0-6.8,0-10.3,0-3.2,0-4.9-1.1-4.9-4.6,0-3.3,1.1-4.9,4.6-4.9,7.2,0,14.5-.2,21.6.3,1.3,0,3.4,2.8,3.4,4.3,0,1.6-1.8,4.3-3.2,4.6-3.7.6-7.6.2-11.4.2h0c0,0,0,0,0,0h0Z"/>
</svg>