<?xml version="1.0" encoding="UTF-8"?>
<svg id="train" xmlns="http://www.w3.org/2000/svg" viewBox="0 0 300 300">
  <defs>
    <style>
      .cls-1 {
        fill: rgba(255, 255, 255, 0);
      }

      .cls-1, .cls-2 {
        stroke-miterlimit: 12;
      }

      .cls-1, .cls-2, .cls-3 {
        stroke: #261e58;
        stroke-width: 4px;
      }

      .cls-4 {
        fill: #261e58;
      }

      .cls-2, .cls-3 {
        fill: none;
      }

      .cls-3 {
        stroke-miterlimit: 9;
      }

      .cls-5 {
        fill: #f7b40b;
      }
    </style>
  </defs>
  <ellipse id="path1174" class="cls-2" cx="42.99" cy="220.78" rx="14.66" ry="13.77"/>
  <ellipse id="path1174-9" class="cls-2" cx="203.62" cy="220.95" rx="14.66" ry="13.77"/>
  <path class="cls-1" d="M118.08,239.63c-13.32.01-26.27.02-38.31.03-39.09.02-68.57,0-69.75,0"/>
  <path class="cls-1" d="M263.26,239.26c-9.54.07-22.56.13-37.7.18-30.89.1-70.59.16-107.48.19"/>
  <path class="cls-1" d="M279.96,239.02c-1.43.09-7.42.17-16.71.24"/>
  <path class="cls-3" d="M37.52,61.27l-27.41.36"/>
  <path class="cls-3" d="M174.67,195c17.8-.23,39.68-.54,75.52-.94,107.36-3.46-23.81-132.83-140.78-133.73l-32.09.42"/>
  <path class="cls-3" d="M10.01,195.18c69.21.27,101.51.33,126.54.19"/>
  <path id="rect1228" class="cls-5" d="M10,154.43h166.2c7.04,0,12.75,5.71,12.75,12.75h0c0,7.04-5.71,12.75-12.75,12.75H10s0-25.5,0-25.5Z"/>
  <path class="cls-4" d="M10.06,86.23h55.74c16.58,0,30.05,13.46,30.05,30.05v4.98H10.06v-35.02h0Z"/>
  <path class="cls-4" d="M253.38,118.19h-86.91c-18.79,0-34.01-14.42-34.01-32.21h0s74.53,0,74.53,0"/>
</svg>