<?xml version="1.0" encoding="UTF-8"?>
<svg id="bubble" xmlns="http://www.w3.org/2000/svg" viewBox="0 0 300 300">
  <defs>
    <style>
      .cls-1 {
        fill: #261e58;
      }

      .cls-2 {
        fill: #ffb800;
      }

      .cls-3 {
        fill: none;
        stroke: #261e58;
        stroke-miterlimit: 10;
        stroke-width: 4px;
      }
    </style>
  </defs>
  <path class="cls-1" d="M84.32,129.52c-11.01,0-19.94,8.92-19.94,19.94s8.94,19.94,19.94,19.94,19.94-8.92,19.94-19.94-8.94-19.94-19.94-19.94Z"/>
  <path class="cls-1" d="M149.5,129.52c-11.01,0-19.94,8.92-19.94,19.94s8.94,19.94,19.94,19.94,19.94-8.92,19.94-19.94-8.94-19.94-19.94-19.94Z"/>
  <path class="cls-2" d="M214.68,129.52c-11.01,0-19.94,8.92-19.94,19.94s8.94,19.94,19.94,19.94,19.94-8.92,19.94-19.94-8.94-19.94-19.94-19.94Z"/>
  <g>
    <path class="cls-3" d="M284.95,184.84c2.97-11.3,4.55-23.16,4.55-35.37,0-77.3-62.7-139.61-140-139.61"/>
    <path class="cls-3" d="M97.91,19.62C46.13,40.06,9.5,90.39,9.5,149.46c0,77.3,62.7,139.61,140,139.61,51.56,0,96.63-27.9,120.92-69.3"/>
  </g>
</svg>