<?xml version="1.0" encoding="UTF-8"?>
<svg id="aerospace" xmlns="http://www.w3.org/2000/svg" version="1.1" viewBox="0 0 300 300">
  <!-- Generator: Adobe Illustrator 29.0.0, SVG Export Plug-In . SVG Version: 2.1.0 Build 186)  -->
  <defs>
    <style>
      .st0 {
        fill: #fbb800;
      }

      .st1 {
        fill: #261e58;
      }

      .st2 {
        fill: none;
        stroke: #261e58;
        stroke-miterlimit: 10;
        stroke-width: 4px;
      }
    </style>
  </defs>
  <path class="st2" d="M215,202.8c10.1-9.4,19.5-19.4,27.8-30.4.4-.6.8-1.1,1.2-1.7"/>
  <path class="st2" d="M60.3,175.1c21.3,26.1,46.7,47.6,74.3,66.7,4.4,3,9.2,5.5,13.9,8.1,1.6.9,3,.8,4.7-.2,11.5-6.8,22.4-14.3,32.9-22.4"/>
  <path class="st2" d="M53.2,67.2c-12.4,12.4-19.9,30-19.1,48.2.4,10.1,3,19.9,7,29.4h0"/>
  <path class="st2" d="M260.9,139.6c5.1-14.3,6.7-28.8,2.9-43.8-8.3-32.2-41.4-52.4-73.6-44.8-13.7,3.2-26.3,9.1-38.2,16.5-1.2.7-2.1,1.4-3.6.3-8.3-5.7-17.4-9.8-26.8-13.3-11.1-4.2-22.6-6.1-34.5-4.4"/>
  <path class="st1" d="M282.4,153c-7.5.1-60.9.1-68.4,0-.9,0-2-.9-2.5-1.8-3.1-5-6-10.2-9-15.3-2.5-4.2-6-4.4-8.7-.3-2.6,3.8-5.2,7.7-8.1,11.9-.5-1.5-.8-2.5-1.1-3.5-4.3-13.9-8.6-27.9-12.8-41.8-.8-2.6-2-4.6-4.8-4.5-2.8,0-3.8,2.2-4.5,4.6-7.6,26.5-15.3,52.9-23,79.4-.2.8-.5,1.5-.9,2.8-.5-1.3-1-2.1-1.3-3-8.1-20.8-16.3-41.7-24.4-62.5-.5-1.3-1.2-2.7-2.2-3.6-2-1.7-4.8-.7-6.3,2.1-3.9,7.6-7.7,15.1-11.6,22.7-2.6,5-5.1,10-7.6,15.1-.8,1.5-1.6,2.2-3.5,2.2h-.6c-12.2,0-65.1-.1-65.1-.1,0,0-6.3,0-6,4.6.3,4.1,6,4.2,6,4.2h35.1c10.7,0,21.5-.1,32.2,0h1c3.3-.2,5.4-1.5,6.9-4.8,5.1-10.6,10.6-21.1,16.2-32,.6,1.3,1,2.2,1.3,3.1,8.4,21.7,16.9,43.3,25.3,65,.2.6.4,1.2.7,1.8.8,2,2.3,3.1,4.3,3,2.1,0,3.4-1.4,4-3.4,1.3-4.4,2.6-8.8,3.8-13.1,6.5-22.2,12.9-44.3,19.4-66.5.2-.6.4-1.2.8-2.4,1.4,4.6,2.7,8.7,4,12.9,2.7,8.9,5.5,17.8,8.2,26.7.6,2.1,1.3,4.2,3.9,4.6,2.7.4,4.1-1.3,5.4-3.2,2.9-4.4,5.9-8.7,9.1-13.4,2.7,4.6,5.4,8.8,7.7,13.2,1.4,2.6,3.3,3.6,6.3,3.6,7.1-.1,65,0,72.7,0,0,0,5.7-.2,5.7-4.2s-7.6-4-7.6-4h0Z"/>
  <g>
    <rect class="st0" x="215.1" y="78.5" width="5.6" height="32.3"/>
    <rect class="st0" x="201.7" y="91.8" width="32.3" height="5.6"/>
  </g>
  <g>
    <rect class="st0" x="232.5" y="105.2" width="2" height="11.8"/>
    <rect class="st0" x="227.5" y="110.1" width="11.8" height="2"/>
  </g>
</svg>