<?xml version="1.0" encoding="UTF-8"?>
<svg id="Ribbon_x5F_gear" xmlns="http://www.w3.org/2000/svg" version="1.1" viewBox="0 0 300 300">
  <!-- Generator: Adobe Illustrator 29.0.0, SVG Export Plug-In . SVG Version: 2.1.0 Build 186)  -->
  <defs>
    <style>
      .st0 {
        fill: #292357;
      }

      .st1 {
        fill: none;
        stroke: #292357;
        stroke-miterlimit: 10;
        stroke-width: 4px;
      }

      .st2 {
        fill: #fbb809;
      }
    </style>
  </defs>
  <polyline class="st1" points="103.3 229.4 103.3 290 150.5 255 196.7 290 196.7 273.7"/>
  <path class="st1" d="M196.7,237v-52h-17.5c-7.2,6.8-17.8,11.7-29.2,11.7s-19.9-4.9-29.6-11.7h-17.1v7.4"/>
  <path class="st0" d="M230.8,76.8c.6-1.7.9-3.5.9-5.2,0-5.3-2.6-10.3-7.2-13.5-14.6-10.1-12.7-7.6-18.2-24.1-2.3-6.9-9-11.5-16.5-11.5h0c-18.1,0-14.9,1-29.5-9.2-3-2.1-6.6-3.2-10.2-3.2s-7.2,1.1-10.2,3.2c-14.7,10.3-11.5,9.3-29.5,9.2h0c-7.5,0-14.2,4.7-16.5,11.5-5.5,16.5-3.6,14-18.2,24.1-4.6,3.2-7.2,8.2-7.2,13.5s.3,3.5.9,5.2c5.6,16.5,5.6,13.3,0,29.8-.6,1.7-.9,3.4-.9,5.2,0,5.3,2.6,10.3,7.2,13.5,14.6,10.1,12.7,7.6,18.2,24.1,2.3,6.9,9,11.5,16.5,11.5h0c18,0,14.9-1,29.5,9.2,3.1,2.1,6.6,3.2,10.2,3.2s7.2-1.1,10.2-3.2c14.6-10.2,11.4-9.3,29.5-9.2h0c7.5,0,14.2-4.7,16.5-11.5,5.5-16.5,3.5-14,18.2-24.1,4.6-3.2,7.2-8.2,7.2-13.5s-.3-3.5-.9-5.2c-5.6-16.5-5.6-13.4,0-29.8ZM150,138.3c-25.8,0-46.7-20.9-46.7-46.7s20.9-46.7,46.7-46.7,46.7,20.9,46.7,46.7-20.9,46.7-46.7,46.7Z"/>
  <path id="light-bulb-11-icon" class="st2" d="M126.2,98.3h-12.2c0-23.7,21.5-41.4,43.1-42.8v11.2c-16.1,2.6-27.5,10.2-30.9,31.6h-.9.9Z"/>
</svg>