<?xml version="1.0" encoding="UTF-8"?>
<svg id="Circles" xmlns="http://www.w3.org/2000/svg" version="1.1" viewBox="0 0 300 300">
  <!-- Generator: Adobe Illustrator 29.0.0, SVG Export Plug-In . SVG Version: 2.1.0 Build 186)  -->
  <defs>
    <style>
      .st0, .st1 {
        fill: #292357;
      }

      .st2 {
        fill: none;
      }

      .st2, .st1 {
        stroke: #292357;
        stroke-miterlimit: 10;
        stroke-width: 4px;
      }

      .st3 {
        fill: #fbb809;
      }
    </style>
  </defs>
  <polygon id="rect12921" class="st0" points="191.4 197.7 186.8 200.3 212.8 235.3 217.4 232.7 191.4 197.7"/>
  <path id="path12927" class="st1" d="M125.4,264.9c-8.4,4.8-19.3,2-24.2-6.4-4.9-8.4-2-19.1,6.4-23.9,8.4-4.8,19.3-2,24.2,6.4,4.9,8.4,2,19.1-6.4,23.9Z"/>
  <path id="path12931" class="st3" d="M79.5,113.3c-9.4,2.6-19.1-2.9-21.7-12.2-2.6-9.3,3-18.9,12.4-21.5,9.4-2.6,19.1,2.9,21.7,12.2,2.6,9.3-3,18.9-12.4,21.5Z"/>
  <path id="path12935" class="st3" d="M282.3,171.6c-7.6,6.1-18.7,4.9-24.8-2.7-6.1-7.5-4.9-18.5,2.7-24.6,7.6-6.1,18.7-4.9,24.8,2.7,6.1,7.5,4.9,18.5-2.7,24.6Z"/>
  <path class="st2" d="M20,169.4c5.5-4.7,12.8-7.5,20.6-7.5,17.5,0,31.7,14.1,31.7,31.4s-14.2,31.4-31.7,31.4-25-8.3-29.6-20.1"/>
  <path class="st2" d="M131.3,202.6c-17.3-9.6-28.9-28-28.9-49s4-23.8,10.9-33.1"/>
  <path class="st2" d="M143.1,207.6c-4.2-1.2-8.1-2.9-11.8-5"/>
  <path class="st2" d="M143.1,207.6c3.9,1.1,8,1.9,12.2,2.2"/>
  <path class="st2" d="M125.1,108.7c9.5-7.1,21.3-11.3,34.1-11.3,31.4,0,56.8,25.2,56.8,56.2s-18.8,49-43.9,54.8"/>
  <path class="st2" d="M201,249.4c2-6.5,6.1-12.3,12.1-16.5,14.3-10,34.1-6.6,44.2,7.6,10.1,14.2,6.6,33.8-7.7,43.8-11.6,8.1-26.8,7.4-37.5-.7"/>
  <path id="path12911" class="st1" d="M212.7,71.5c-16.8,5.1-34.5-4.2-39.7-20.8-5.1-16.6,4.3-34.2,21-39.3,16.8-5.1,34.5,4.2,39.7,20.8,5.1,16.6-4.3,34.2-21,39.3Z"/>
  <line class="st2" x1="138.2" y1="205" x2="127.4" y2="230.3"/>
  <line class="st2" x1="182.2" y1="101.5" x2="192.4" y2="75.5"/>
  <line class="st2" x1="114.1" y1="123.1" x2="97.4" y2="111"/>
  <line class="st2" x1="105.5" y1="173.2" x2="81.3" y2="180.4"/>
  <line class="st2" x1="216" y1="154.1" x2="247.4" y2="156.5"/>
</svg>