<?xml version="1.0" encoding="UTF-8"?>
<svg id="slideshow" xmlns="http://www.w3.org/2000/svg" version="1.1" viewBox="0 0 300 300">
  <!-- Generator: Adobe Illustrator 29.0.0, SVG Export Plug-In . SVG Version: 2.1.0 Build 186)  -->
  <defs>
    <style>
      .st0 {
        fill: #fbb800;
      }

      .st1 {
        fill: #261e58;
      }

      .st2 {
        stroke: #7667a4;
      }

      .st2, .st3 {
        fill: none;
        stroke-miterlimit: 10;
      }

      .st3 {
        stroke: #261e58;
        stroke-width: 4px;
      }
    </style>
  </defs>
  <line class="st2" x1="269" y1="37.4" x2="269" y2="218.6"/>
  <line class="st3" x1="269" y1="37.4" x2="269" y2="218.6"/>
  <polyline class="st2" points="238.9 218.6 30.9 218.6 30.9 37.4"/>
  <polyline class="st3" points="238.9 218.6 30.9 218.6 30.9 37.4"/>
  <path class="st3" d="M30.9,35.1h-4.4c-4.1,0-7.5-2.7-7.5-6.1v-13c0-3.3,3.3-6,7.4-6h247.4c4,0,7.2,2.6,7.2,5.9v12.9c0,3.5-3.5,6.4-7.8,6.4H30.9Z"/>
  <polyline class="st3" points="221.1 71.4 184.1 71.4 184.1 87.9 250.2 87.9 250.2 71.4 241.6 71.4"/>
  <polyline class="st3" points="200 121 250.2 121 250.2 104.4 184.1 104.4 184.1 121"/>
  <polyline class="st3" points="242.9 137.5 184.1 137.5 184.1 154.1 250.2 154.1 250.2 137.5"/>
  <rect class="st0" x="184.1" y="170.6" width="66.1" height="16.5"/>
  <polyline class="st3" points="129.7 71.4 165.5 71.4 165.5 185.9 49.7 185.9"/>
  <polyline class="st3" points="49.7 175.3 49.7 117.4 49.7 71.4 112.2 71.4"/>
  <g>
    <polygon class="st1" points="83.3 290 97.4 290 119.7 220.6 105.6 220.6 83.3 290"/>
    <polygon class="st1" points="194.3 220.6 180.2 220.6 202.5 290 216.6 290 194.3 220.6"/>
  </g>
</svg>