<?xml version="1.0" encoding="UTF-8"?>
<svg id="Hat" xmlns="http://www.w3.org/2000/svg" viewBox="0 0 300 300">
  <defs>
    <style>
      .cls-1, .cls-2 {
        fill: none;
      }

      .cls-3 {
        fill: #fbb800;
      }

      .cls-4 {
        fill: #261e58;
      }

      .cls-2 {
        stroke: #261e58;
        stroke-miterlimit: 10;
        stroke-width: 4px;
      }
    </style>
  </defs>
  <path class="cls-1" d="M89.69,80.1c13.84-19.1,37.08-29.24,60.31-29.24,36.54,0,73.09,25.1,73.09,70.64h0c0,43.65-38.54,68.2-38.54,102.63h-69.09c0-34.43-38.54-58.98-38.54-102.63,0-7.72,1.05-14.86,2.98-21.39"/>
  <path id="path21534" class="cls-3" d="M126.23,276h47.65c-13.11,11.77-14.33,14-19.22,14h-9.66c-5-.11-6.33-2.44-18.77-14Z"/>
  <path id="path21532" class="cls-4" d="M176.11,238.87h-53.66c-3.95,0-7.15,5.02-7.15,11.2s3.21,11.2,7.15,11.2h53.66c3.95,0,7.15-5.02,7.15-11.2-.12-6.18-3.21-11.2-7.15-11.2Z"/>
  <path class="cls-2" d="M190.57,199.71c-3.61,7.83-6.02,15.82-6.02,24.42h-69.09c0-34.43-38.54-58.98-38.54-102.63,0-7.72,1.05-14.86,2.98-21.39"/>
  <path class="cls-2" d="M106.54,63.87c12.66-8.56,28.06-13.02,43.46-13.02,36.54,0,73.09,25.1,73.09,70.64h0c0,15.08-4.6,27.87-10.62,39.58"/>
  <path id="path3084" class="cls-4" d="M135.62,110.14l22.97-8.19,8.1-23.01,8.2,22.98,23,8.1-22.97,8.2-8.1,23.01-8.19-22.97-23.01-8.1Z"/>
  <line class="cls-2" x1="83.72" y1="30.66" x2="100.7" y2="47.64"/>
  <line class="cls-2" x1="220.84" y1="33.88" x2="203.87" y2="50.85"/>
  <line class="cls-2" x1="150" y1="10" x2="150" y2="34.01"/>
</svg>