<?xml version="1.0" encoding="UTF-8"?>
<svg id="Calque_1" xmlns="http://www.w3.org/2000/svg" version="1.1" viewBox="0 0 300 300">
  <!-- Generator: Adobe Illustrator 29.0.0, SVG Export Plug-In . SVG Version: 2.1.0 Build 186)  -->
  <defs>
    <style>
      .st0 {
        fill: #f8be32;
      }

      .st1 {
        fill: #261e58;
      }

      .st2 {
        fill: none;
        stroke: #261e58;
        stroke-miterlimit: 10;
        stroke-width: 4px;
      }
    </style>
  </defs>
  <path class="st2" d="M211.2,167.9l39.2,43.7v-43.7h12.9c32.5,0,26.2-26.5,26.2-42.7V58.7c0-16.2-11.6-29.1-26.2-29.1h-100.9"/>
  <path class="st2" d="M130.5,29.6h-5.8c-14.4,0-26.2,12.9-26.2,29.1v109.3h87.2"/>
  <path id="path5144-2" class="st1" d="M74.9,192.5l.5-83.1h-39.2c-14.4,0-26.2,12.9-26.2,29.1v69.6c0,16.2,11.8,29.1,26.2,29.1h12.9v33.3l39.2-33.3h44.4c14.4,0,26.2-12.9,26.2-29.1v-16.2c-.7.3-1.8.3-2.4.3h-84"/>
  <path class="st0" d="M270.3,95.4h-14.7v-20.4c0-6.2-4.1-11.1-9.3-11.1h-21.1v-14.7h27.3c10.6.3,17.9,10.5,17.9,20.7v25.5h0Z"/>
</svg>