<?xml version="1.0" encoding="UTF-8"?>
<svg id="aerospace" xmlns="http://www.w3.org/2000/svg" version="1.1" viewBox="0 0 300 300">
  <!-- Generator: Adobe Illustrator 29.0.0, SVG Export Plug-In . SVG Version: 2.1.0 Build 186)  -->
  <defs>
    <style>
      .st0 {
        fill: #fbb800;
      }

      .st1 {
        fill: #261e58;
      }

      .st2 {
        stroke-miterlimit: 5.3;
      }

      .st2, .st3 {
        fill: none;
        stroke: #261e58;
        stroke-width: 4px;
      }
    </style>
  </defs>
  <g id="g970">
    <path class="st3" d="M56.1,111.2L10,74.1l40.5-41.8,11.4,9.2"/>
    <path class="st3" d="M92.5,66.1l46.4,37.3-16.4,18.7,13.1,10.8-5.3,5.4-14.3-10.9-16.9,18.4-11.6-9.3"/>
  </g>
  <g id="g974">
    <path id="path976" class="st0" d="M123.5,234.2l-62.9-51.2s85.3-33.5,62.9,51.2"/>
  </g>
  <path class="st1" d="M170.1,161.5l22.6-23.2s9.5-10.2-.4-18.4l-15.5-13.1c-1-.5-4.8-2.4-9.8-1.4s-7.7,4.4-8.4,5.3l-56.5,57.6s34.8-4.9,35.5,26.7c9.3-9.6,18.6-19.1,27.9-28.7l4.6-4.8h0Z"/>
  <polyline class="st2" points="234.6 255.7 249.1 267.7 290 226.1 242.2 187"/>
  <path class="st2" d="M212,162.2l-9.5-7.8c-6.5,5.7-12.1,12.6-18.6,18.3,0,0-10.9-9-13.4-10.9l-4.5,4.9c2.8,2.3,13.1,10.5,13.2,10.6l-17.6,18.5,41.9,34.5"/>
</svg>