<?xml version="1.0" encoding="UTF-8"?>
<svg xmlns="http://www.w3.org/2000/svg" version="1.1" viewBox="0 0 300 300">
  <defs>
    <style>
      .cls-1 {
        fill: #292357;
      }

      .cls-2 {
        fill: none;
        stroke: #292357;
        stroke-miterlimit: 10;
        stroke-width: 4px;
      }

      .cls-3 {
        fill: #fbb809;
      }
    </style>
  </defs>
  <!-- Generator: Adobe Illustrator 28.7.1, SVG Export Plug-In . SVG Version: 1.2.0 Build 142)  -->
  <g>
    <g id="Gears">
      <g>
        <g>
          <path class="cls-2" d="M21,118.4c-4.3,2-9.6,3.5-15.9,5.7v27.6c13.9,4.9,23,6.4,27.5,17.2,4.5,11-1,18.5-7.2,31.7l19.5,19.5c13.4-6.3,20.8-11.8,31.7-7.2h0c10.9,4.5,12.3,13.5,17.3,27.5h27.6c2.1-5.8,3.5-10.7,5.3-14.8M159.6,214.9c3.2,1.5,6.8,3.4,10.9,5.3l19.5-19.5c-6.3-13.4-11.8-20.8-7.3-31.7,4.5-10.8,13.6-12.3,27.6-17.2v-27.6c-14.1-5-23-6.4-27.5-17.3-4.5-10.8.9-18.2,7.3-31.7l-19.5-19.6c-13.4,6.3-20.8,11.8-31.7,7.3-10.9-4.5-12.3-13.5-17.3-27.5h-27.6c-5,14-6.4,23-17.3,27.5h0c-10.8,4.5-18.2-.8-31.7-7.2l-19.5,19.5c1.5,3.2,3,6.1,4.3,8.7M107.7,172.1c-18.9,0-34.2-15.3-34.2-34.2s15.3-34.2,34.2-34.2,34.2,15.3,34.2,34.2-15.3,34.2-34.2,34.2h0Z"/>
          <path class="cls-1" d="M294.8,222.9v-13c-6.6-2.4-10.8-3-13-8.1-2.1-5.1.4-8.6,3.4-14.9l-9.2-9.2c-6.3,3-9.8,5.5-14.9,3.4-5.1-2.1-5.8-6.3-8.1-12.9h-13c-2.4,6.6-3,10.8-8.1,12.9s-8.6-.4-14.9-3.4l-9.2,9.2c3,6.3,5.5,9.8,3.4,14.9-2.1,5.1-6.4,5.8-12.9,8.1v13c6.6,2.4,10.8,3,12.9,8.1,2.1,5.1-.4,8.7-3.4,14.9l9.2,9.2c6.3-3,9.8-5.5,14.9-3.4,5.1,2.1,5.8,6.3,8.1,12.9h13c2.3-6.6,3-10.8,8.1-12.9,1.3-.6,2.5-.8,3.7-.8,3.4,0,6.5,2,11.2,4.2l9.2-9.2c-3-6.3-5.5-9.8-3.4-14.9,2.1-5.1,6.4-5.8,13-8.1h0ZM246.5,232.5c-8.9,0-16.1-7.2-16.1-16.1s7.2-16.1,16.1-16.1,16.1,7.2,16.1,16.1-7.2,16.1-16.1,16.1Z"/>
        </g>
        <path id="light-bulb-11-icon" class="cls-3" d="M58.6,129.3h-15.5c1.2-28.2,24.9-51.9,49.8-51.9v13c-16,2-32.3,12.9-34.3,38.8h-2,2Z"/>
      </g>
    </g>
  </g>
</svg>