<?xml version="1.0" encoding="UTF-8"?>
<svg id="scheme" xmlns="http://www.w3.org/2000/svg" version="1.1" viewBox="0 0 300 300">
  <!-- Generator: Adobe Illustrator 29.0.0, SVG Export Plug-In . SVG Version: 2.1.0 Build 186)  -->
  <defs>
    <style>
      .st0 {
        fill: #fbb800;
      }

      .st1 {
        fill: #261e58;
      }

      .st2 {
        fill: none;
        stroke: #261e58;
        stroke-miterlimit: 10;
        stroke-width: 4px;
      }
    </style>
  </defs>
  <polygon class="st1" points="249.3 225.1 274.2 225.1 229.3 275 184.4 225.1 209.4 225.1 209.4 104.6 249.3 104.6 249.3 225.1"/>
  <polyline class="st2" points="290 66 290 196.1 264.8 196.1"/>
  <line class="st2" x1="86.3" y1="25" x2="270.7" y2="25"/>
  <polyline class="st2" points="192 196.1 10 196.1 10 25 46 25"/>
  <path class="st2" d="M172.3,168.8h-27.8c-2,0-3.6-1.6-3.6-3.6v-33.2c0-2,1.6-3.6,3.6-3.6h40.8c2,0,3.6,1.6,3.6,3.6v33.2c0,2-1.6,3.6-3.6,3.6h-3.9"/>
  <path class="st2" d="M98.5,40.9h32c4.7,0,8.6,3.9,8.6,8.6v43.5c0,2.4-1.9,4.3-4.3,4.3h-3.2"/>
  <path class="st2" d="M112.4,97.3h-32c-4.7,0-8.6-3.9-8.6-8.6v-43.5c0-2.4,1.9-4.3,4.3-4.3h3.2"/>
  <polyline class="st2" points="45.9 128.4 45.9 110 165.2 110 165.2 127.4"/>
  <line class="st2" x1="105.5" y1="97.3" x2="105.5" y2="111.2"/>
  <path class="st0" d="M41.1,128.4h25.2c2,0,3.7,1.6,3.7,3.7v33c0,2-1.6,3.7-3.7,3.7H25.6c-2,0-3.7-1.6-3.7-3.7v-33c0-2,1.6-3.7,3.7-3.7h15.5Z"/>
</svg>