<?xml version="1.0" encoding="UTF-8"?>
<svg id="Calque_1" xmlns="http://www.w3.org/2000/svg" version="1.1" viewBox="0 0 300 300">
  <!-- Generator: Adobe Illustrator 29.0.0, SVG Export Plug-In . SVG Version: 2.1.0 Build 186)  -->
  <defs>
    <style>
      .st0 {
        fill: #fbb800;
      }

      .st1 {
        fill: #261e58;
      }

      .st2 {
        fill: none;
        stroke: #261e58;
        stroke-miterlimit: 10;
        stroke-width: 4px;
      }
    </style>
  </defs>
  <rect class="st0" x="147.4" y="127" width="16.7" height="72" transform="translate(-69.7 157.9) rotate(-45)"/>
  <path class="st2" d="M27.5,118.6c12.8,12.8,29.9,18.6,46.5,17.1,8.5-.5,17.6,2.4,23.7,8.5l129.2,129.2c10.9,10.9,28.6,10.9,39.4,0,10.9-10.9,10.5-28-.5-38.9h0l-29.1-29.1"/>
  <path class="st2" d="M216,184.5l-79.2-79.2c-6.2-6.2-9.5-14.7-8.5-23.7,1.5-16.7-4.3-33.7-17.1-46.5-16.7-16.7-40.3-21.4-61.2-14.3l37.5,37.5c1,14.7-21.9,37.5-36.6,36.6L13.2,57.3c-4.5,13-4.3,27.2.5,40.1"/>
  <path class="st1" d="M207.7,60l22.6-22.6c13.7-13.7,35.7-13.7,49.4,0,13.7,13.7,13.7,35.7,0,49.4l-66.5,66.5-11.9-11.9,63.6-63.6c1.8-1.8,1.8-5.2,0-7.1s-5.2-1.8-7.1,0l-63.6,63.6-10.5-10.5,63.6-63.6c1.8-1.8,1.8-5.2,0-7.1s-5.2-1.8-7.1,0l-63.6,63.6-12.8-12.8h0l20.4-20.4"/>
  <path class="st2" d="M93,241.1l-13.1,13.3c-2.8,2.8-4.8,5.6-6.6,9l-3.8,6.6-24.8,12.3-9.5-9.5,11.9-25.2,6.6-3.3c3.3-1.8,6.2-3.8,9-6.6l49.4-49.4,16.7,16.7-12.9,12.9"/>
</svg>