<?xml version="1.0" encoding="UTF-8"?>
<svg id="Hat" xmlns="http://www.w3.org/2000/svg" viewBox="0 0 300 300">
  <defs>
    <style>
      .cls-1 {
        fill: #fbb800;
      }

      .cls-2 {
        fill: #261e58;
      }

      .cls-3 {
        fill: none;
        stroke: #261e58;
        stroke-miterlimit: 10;
        stroke-width: 4px;
      }
    </style>
  </defs>
  <path class="cls-3" d="M167.58,203.01c40.68-14.88,66.11-49.34,66.11-85.29,0-54.27-53.14-93.42-111.85-93.42C62.78,24.3,10,63.74,10,117.72c0,19.14,6.88,37.93,19.07,52.51.53,17.08-9.52,41.59-18.58,59.41,24.25-4.37,58.74-14.07,74.37-23.66,13.21,3.23,25.86,4.71,37.83,4.71"/>
  <circle class="cls-2" cx="76.12" cy="117.86" r="13.99"/>
  <circle class="cls-2" cx="121.85" cy="117.86" r="13.99"/>
  <circle class="cls-1" cx="167.58" cy="117.86" r="13.99"/>
  <path class="cls-3" d="M269.56,152.49c12.76,12.14,20.44,27.74,20.44,44.74,0,20.6-9.31,32.36-18.53,43.39-.34,11.04-.93,18.35,3.65,35.07-19.28-6.17-22.47-8.59-33.11-15.12-11.02,2.69-23.55,6.18-40.95,6.18-17.27,0-32.44-3.7-45.07-9.83-9.9-4.81-18.25-11.11-24.85-18.29"/>
</svg>