<?xml version="1.0" encoding="UTF-8"?>
<svg id="Gear" xmlns="http://www.w3.org/2000/svg" viewBox="0 0 300 300">
  <defs>
    <style>
      .cls-1 {
        fill: #fbb800;
      }

      .cls-2 {
        fill: #261e58;
      }

      .cls-3 {
        fill: none;
        stroke: #261e58;
        stroke-miterlimit: 10;
        stroke-width: 4px;
      }
    </style>
  </defs>
  <polygon class="cls-1" points="227.46 145.82 227.46 159.14 177.46 183.81 177.46 169.87 212.71 152.48 177.46 135.04 177.46 121.15 227.46 145.82"/>
  <polygon class="cls-2" points="127.46 169.87 92.21 152.48 127.46 135.04 127.46 121.15 77.46 145.82 77.46 159.14 127.46 183.81 127.46 169.87"/>
  <polygon class="cls-2" points="171.5 102.48 158.51 102.48 133.44 202.48 146.4 202.48 171.5 102.48"/>
  <path class="cls-3" d="M230.95,267.03l36.09-36.09c-11.38-23.92-15.89-29.07-12.35-37.6,3.5-8.47,10.27-8.9,35.32-17.83v-51.03c-25.06-8.94-31.8-9.36-35.32-17.84-3.53-8.51.97-13.64,12.35-37.6l-36.09-36.08c-23.64,11.24-29.03,15.91-37.61,12.35-8.48-3.52-8.96-10.37-17.81-35.31h-51.04c-8.91,25.01-9.33,31.79-17.84,35.31-8.77,3.65-14.04-1.17-37.6-12.35l-36.08,36.08c11.4,23.97,15.89,29.08,12.35,37.61-3.52,8.48-10.28,8.91-35.31,17.83v51.04c24.95,8.87,31.79,9.33,35.31,17.83,3.55,8.56-.95,13.61-12.35,37.6l36.08,36.09c23.32-11.08,28.82-16.02,37.6-12.35,8.49,3.52,8.91,10.27,17.84,35.32h51.03c8.84-24.86,9.32-31.77,17.93-35.36"/>
  <path class="cls-3" d="M150,240c49.72,0,90-40.28,90-90s-40.28-90-90-90-90,40.28-90,90c0,31.67,16.35,59.52,41.07,75.56"/>
</svg>