<?xml version="1.0" encoding="UTF-8"?>
<svg id="Car" xmlns="http://www.w3.org/2000/svg" version="1.1" viewBox="0 0 300 300">
  <!-- Generator: Adobe Illustrator 29.0.0, SVG Export Plug-In . SVG Version: 2.1.0 Build 186)  -->
  <defs>
    <style>
      .st0, .st1 {
        fill: #292357;
      }

      .st2 {
        fill: none;
      }

      .st2, .st1 {
        stroke: #292357;
        stroke-miterlimit: 10;
        stroke-width: 4px;
      }

      .st3 {
        fill: #fbb809;
      }
    </style>
  </defs>
  <path class="st2" d="M267.6,146.9c2.8,0,5.1,2.3,5.1,5.1v5.2c0,8.1-9.5,10.1-16.5,10.1l-11.1-20.4h22.5Z"/>
  <path class="st2" d="M222.9,129c11,18.4,21.5,38,30,53.7,6.5,12.1,9.7,23,9.7,37.5s-4.1,25.9-10.3,40.7v18.9c0,5.6-4.6,10.2-10.2,10.2h-15.3c-5.6,0-10.2-4.6-10.2-10.2v-10.2h-94.3"/>
  <path class="st2" d="M83.6,269.5v10.2c0,5.6-4.6,10.2-10.2,10.2h-15.3c-5.6,0-10.2-4.6-10.2-10.2v-18.9c-6.2-14.8-10.3-26.7-10.3-40.7s3.1-25.4,9.7-37.5c8.5-15.7,18.9-35.3,30-53.7,8.5-14.1,12.9-17.4,23.3-19.3,15.7-2.8,29.8-3.7,49.6-3.7s33.9.9,49.6,3.7"/>
  <circle class="st0" cx="73.3" cy="213.3" r="15.3"/>
  <path class="st1" d="M190.9,223.5c0-2.8-2.3-5.1-5.1-5.1h-71.6c-2.8,0-5.1,2.3-5.1,5.1s2.3,5.1,5.1,5.1h71.6c2.8,0,5.1-2.3,5.1-5.1Z"/>
  <path class="st3" d="M221,167s-7.6-18.7-16.7-32.1c-2.1-3-5.3-5.1-8.9-5.8-15.4-2.8-29-3.7-45.4-3.7s-30,.9-45.4,3.7c-3.6.6-6.8,2.7-8.9,5.8-9.1,13.4-16.7,32.1-16.7,32.1,16.8,3.2,44,5.1,71,5.1s54.2-1.9,71-5.1h0Z"/>
  <circle class="st0" cx="226.7" cy="213.3" r="15.3"/>
  <path class="st2" d="M54.9,146.9h-22.5c-2.8,0-5.1,2.3-5.1,5.1v5.2c0,8.1,9.5,10.1,16.5,10.1,0,0,11.1-20.4,11.1-20.4Z"/>
  <line class="st2" x1="57" y1="42.7" x2="82.4" y2="64.9"/>
  <line class="st2" x1="142.4" y1="10" x2="144.2" y2="43.7"/>
  <line class="st2" x1="235.1" y1="38.5" x2="211.8" y2="63"/>
</svg>