<?xml version="1.0" encoding="UTF-8"?>
<svg id="Screen_x5F_user" xmlns="http://www.w3.org/2000/svg" version="1.1" viewBox="0 0 300 300">
  <!-- Generator: Adobe Illustrator 29.0.0, SVG Export Plug-In . SVG Version: 2.1.0 Build 186)  -->
  <defs>
    <style>
      .st0 {
        fill: #292357;
      }

      .st1 {
        fill: none;
        stroke: #292357;
        stroke-miterlimit: 10;
        stroke-width: 4px;
      }

      .st2 {
        fill: #fbb809;
      }
    </style>
  </defs>
  <g>
    <path class="st1" d="M108.9,28.4h171.9c5.1,0,9.2,4.1,9.2,9.2v114"/>
    <path class="st1" d="M290,187.6v43.3c0,5.1-4.1,9.2-9.2,9.2H19.2c-5.1,0-9.2-4.1-9.2-9.2V37.5c0-5.1,4.1-9.2,9.2-9.2h53.6"/>
  </g>
  <path class="st0" d="M280.8,252.9c5.1,0,9.2,4.1,9.2,9.2v.3c0,5.1-4.1,9.2-9.2,9.2H19.2c-5.1,0-9.2-4.1-9.2-9.2v-.3c0-5.1,4.1-9.2,9.2-9.2h99.1l12,4.8h34.8l12.6-4.8h103.1Z"/>
  <g>
    <rect class="st2" x="99.7" y="186.4" width="71.7" height="17.3" rx="1" ry="1"/>
    <g>
      <path class="st1" d="M115.9,217.1h108.4s0-20.3,0-25.7c0-8.1-15.8-15.7-34.4-23.5-18.6-7.8-24.5-14.4-24.5-28.4,0-8.5,5.7-5.7,8.1-21.2,1-6.4,6-.1,7-14.7,0-5.8-2.7-7.3-2.7-7.3,0,0,1.4-8.6,1.9-15.3.5-6.4-2.2-20.6-15.4-26.8"/>
      <path class="st1" d="M75.6,217.1v-25.7c0-8.1,15.2-15.5,33.8-23.3l.5-.2c18.6-7.8,24.5-14.3,24.5-28.4,0-8.5-5.7-5.7-8.1-21.2-1-6.4-6-.1-7-14.8,0-5.8,2.7-7.3,2.7-7.3,0,0-1.4-8.6-1.9-15.3-.7-8.3,4.2-29.7,29.9-29.7"/>
    </g>
  </g>
</svg>