<?xml version="1.0" encoding="UTF-8"?>
<svg id="aerospace" xmlns="http://www.w3.org/2000/svg" version="1.1" viewBox="0 0 300 300">
  <!-- Generator: Adobe Illustrator 29.0.0, SVG Export Plug-In . SVG Version: 2.1.0 Build 186)  -->
  <defs>
    <style>
      .st0 {
        fill: #fbb800;
      }

      .st1 {
        fill: #261e58;
      }

      .st2 {
        fill: none;
        stroke: #261e58;
        stroke-width: 4px;
      }
    </style>
  </defs>
  <g id="g132">
    <path id="path134" class="st2" d="M205.9,226.6l31.8,22.2,52.4,4.7-82.9-94-14.4,15-33.4,19.5,13.7,9.7"/>
  </g>
  <g id="g116">
    <path id="path118" class="st2" d="M83,230.2l-40.8,1.5c-.7,0-1-1.1-.4-1.7,19.8-20.8,41-38.7,63.5-53.6l90.4-60.3c14.3-9.6,30.8-11.5,46.2-5.5l7.6,3c1.9.8,2.8,3.8,1.8,6.1l-.6,1.3c-.2.5-.6,1-.9,1.3l-59.9,52.3s-66.2,38.4-94.9,51.4c-5.7,2.5-9.9,4.1-11.9,4.2"/>
  </g>
  <g id="g120">
    <path id="path122" class="st2" d="M235.2,109.7l-12.2,12.6c-.5.5-1.1,0-1.1-.7v-13.6c0-.4.2-.7.6-.8,2.6-.4,9.6.2,12.6,1.4.4,0,.4.9,0,1.2"/>
  </g>
  <g id="g124">
    <path id="path126" class="st1" d="M72.7,189l-26.2,25.9-36.5-43.5,11-9.5s2.2-3.2,7.6,1.3c1.4,1.2,2.8,2.1,4.3,3l39.8,22.8h0Z"/>
  </g>
  <g id="g128">
    <path id="path130" class="st2" d="M139.3,116l17.8,12.2-42.3,29.5-62-54.7-15-56.5,68.1,46.7"/>
  </g>
  <g id="g136">
    <path id="path138" class="st0" d="M115.5,206.7l67.1-38.1c.9-.5,1.3-1.8.8-2.7s-1.7-1.4-2.5-.9l-67.1,38.1c-.9.5-1.3,1.8-.8,2.7s1.6,1.4,2.5.9"/>
  </g>
</svg>